<svg width="150" height="150" viewBox="0 0 150 150" fill="none" xmlns="http://www.w3.org/2000/svg">
<path d="M124.183 119.393L49.159 150L14.8068 115.107L82.286 30.1448H25.1072L82.286 0.740458L116.267 43.6231L50.1908 116.493L124.183 119.393Z" fill="url(#paint0_linear_56_24)"/>
<path d="M0 0H18.0258H82.0815L21.5665 31.0995V31.4697H77.5751L21.5665 60.718L12.8755 115.142H0V0Z" fill="url(#paint1_linear_56_24)"/>
<path d="M83.0472 0H150V118.844L52.4678 115.883L117.811 43.6874L83.0472 0Z" fill="url(#paint2_linear_56_24)"/>
<path d="M69.9242 111.81L143.958 46.6492L143.805 111.81L69.9242 111.81Z" fill="black" fill-opacity="0.68"/>
<path d="M93.4174 4.81317L144.099 4.92513L144.029 46.6218L93.4174 4.81317Z" fill="black" fill-opacity="0.63"/>
<defs>
<linearGradient id="paint0_linear_56_24" x1="14.8068" y1="61.0883" x2="124.277" y2="64.1675" gradientUnits="userSpaceOnUse">
<stop offset="0.0885417" stop-color="#F25252"/>
<stop offset="0.510417" stop-color="#943FFD" stop-opacity="0.995143"/>
<stop offset="0.885417" stop-color="#5262F2" stop-opacity="0.99"/>
</linearGradient>
<linearGradient id="paint1_linear_56_24" x1="0" y1="57.386" x2="82.4034" y2="57.386" gradientUnits="userSpaceOnUse">
<stop offset="0.401042" stop-color="#E53E3E"/>
<stop offset="0.71875" stop-color="#BB51D6" stop-opacity="0.92"/>
</linearGradient>
<linearGradient id="paint2_linear_56_24" x1="155.15" y1="59.6073" x2="52.7897" y2="59.6073" gradientUnits="userSpaceOnUse">
<stop offset="0.239583" stop-color="#2150F6"/>
<stop offset="0.677083" stop-color="#CE43FF"/>
</linearGradient>
</defs>
</svg>
